<svg data-v-423bf9ae="" xmlns="http://www.w3.org/2000/svg" viewBox="0 0 243 107" class="iconLeft"><!----><!----><!----><g data-v-423bf9ae="" id="c76ad63e-f7cd-47a3-af67-49506326d1d9" fill="white" transform="matrix(6.528835311558844,0,0,6.528835311558844,97.68620629974285,4.4796626483870625)"><path d="M0.70 3.00L2.66 3.00L2.66 12.05L0.70 12.05L0.70 3.00ZM8.68 2.86L10.54 2.86L10.54 2.86Q12.28 2.86 12.28 4.70L12.28 4.70L12.28 12.05L10.32 12.05L10.32 9.02L8.90 9.02L8.90 12.05L6.94 12.05L6.94 4.70L6.94 4.70Q6.94 2.86 8.68 2.86L8.68 2.86ZM8.90 4.47L8.90 7.50L10.32 7.50L10.32 4.47L10.32 4.47Q10.32 4.35 10.24 4.27L10.24 4.27L10.24 4.27Q10.16 4.19 10.05 4.19L10.05 4.19L9.17 4.19L9.17 4.19Q9.06 4.19 8.98 4.27L8.98 4.27L8.98 4.27Q8.90 4.35 8.90 4.47L8.90 4.47ZM15.68 4.54L15.68 12.05L13.72 12.05L13.72 4.70L13.72 4.70Q13.72 2.86 15.46 2.86L15.46 2.86L16.49 2.86L16.49 2.86Q17.51 2.86 17.95 3.53L17.95 3.53L17.95 3.53Q18.35 2.86 19.40 2.86L19.40 2.86L20.44 2.86L20.44 2.86Q22.18 2.86 22.18 4.70L22.18 4.70L22.18 12.05L20.22 12.05L20.22 4.54L20.22 4.54Q20.22 4.42 20.14 4.34L20.14 4.34L20.14 4.34Q20.06 4.26 19.95 4.26L19.95 4.26L19.19 4.26L19.19 4.26Q19.08 4.26 19.00 4.34L19.00 4.34L19.00 4.34Q18.93 4.42 18.93 4.54L18.93 4.54L18.93 12.05L16.97 12.05L16.97 4.54L16.97 4.54Q16.97 4.42 16.89 4.34L16.89 4.34L16.89 4.34Q16.81 4.26 16.70 4.26L16.70 4.26L15.95 4.26L15.95 4.26Q15.83 4.26 15.76 4.34L15.76 4.34L15.76 4.34Q15.68 4.42 15.68 4.54L15.68 4.54Z"></path></g><!----><g data-v-423bf9ae="" id="7c4abdc0-6b33-4571-bb1c-991d5cacca64" transform="matrix(1.0868111504448785,0,0,1.0868111504448785,-13.255261890115804,-0.23894260335429607)" stroke="none" fill="white"><g clip-rule="evenodd"><path d="M12.983 10.59l17.018 88.223-5.872-59.049 29.021-1.892-.054-9.883L64.549 1 53.622 18.977z"></path><path d="M59.389 54.548l5.16-53.541-8.74 39.716-19.612 1.045 1.57 20.462-7.766 36.583 12.057-39.899z"></path><path d="M62.8 67.182l.549-10.453-15.979 3.755-.032 11.797-17.337 26.532 21.68-27.616zM65.711 62.394l14.841-4.731 1.509-12.532-15.899 2.095zM72.07 44.502l10.988-1.417 1.581-10.278-8.079-.373L64.549 1l8.43 30.967z"></path><path d="M87.413 31.294l1.256-9.506-9.544-2.694L64.549 1l14.483 22.437-.422 7z"></path></g></g><!----></svg>