<svg data-v-423bf9ae="" xmlns="http://www.w3.org/2000/svg" viewBox="0 0 140.23937950362034 60" class="font"><!----><!----><!----><g data-v-423bf9ae="" id="667e1dd2-af30-43f2-9ed8-26f981761436" fill="white" transform="matrix(6.528835311558844,0,0,6.528835311558844,-4.570183318177072,-18.672469385914695)"><path d="M0.70 3.00L2.66 3.00L2.66 12.05L0.70 12.05L0.70 3.00ZM8.68 2.86L10.54 2.86L10.54 2.86Q12.28 2.86 12.28 4.70L12.28 4.70L12.28 12.05L10.32 12.05L10.32 9.02L8.90 9.02L8.90 12.05L6.94 12.05L6.94 4.70L6.94 4.70Q6.94 2.86 8.68 2.86L8.68 2.86ZM8.90 4.47L8.90 7.50L10.32 7.50L10.32 4.47L10.32 4.47Q10.32 4.35 10.24 4.27L10.24 4.27L10.24 4.27Q10.16 4.19 10.05 4.19L10.05 4.19L9.17 4.19L9.17 4.19Q9.06 4.19 8.98 4.27L8.98 4.27L8.98 4.27Q8.90 4.35 8.90 4.47L8.90 4.47ZM15.68 4.54L15.68 12.05L13.72 12.05L13.72 4.70L13.72 4.70Q13.72 2.86 15.46 2.86L15.46 2.86L16.49 2.86L16.49 2.86Q17.51 2.86 17.95 3.53L17.95 3.53L17.95 3.53Q18.35 2.86 19.40 2.86L19.40 2.86L20.44 2.86L20.44 2.86Q22.18 2.86 22.18 4.70L22.18 4.70L22.18 12.05L20.22 12.05L20.22 4.54L20.22 4.54Q20.22 4.42 20.14 4.34L20.14 4.34L20.14 4.34Q20.06 4.26 19.95 4.26L19.95 4.26L19.19 4.26L19.19 4.26Q19.08 4.26 19.00 4.34L19.00 4.34L19.00 4.34Q18.93 4.42 18.93 4.54L18.93 4.54L18.93 12.05L16.97 12.05L16.97 4.54L16.97 4.54Q16.97 4.42 16.89 4.34L16.89 4.34L16.89 4.34Q16.81 4.26 16.70 4.26L16.70 4.26L15.95 4.26L15.95 4.26Q15.83 4.26 15.76 4.34L15.76 4.34L15.76 4.34Q15.68 4.42 15.68 4.54L15.68 4.54Z"></path></g><!----><!----></svg>